<?xml version="1.0" encoding="UTF-8" standalone="no"?>
<!-- Created with Inkscape (http://www.inkscape.org/) -->

<svg
   width="100mm"
   height="100mm"
   viewBox="0 0 100 100"
   version="1.1"
   id="svg5"
   inkscape:version="1.1.1 (3bf5ae0d25, 2021-09-20)"
   sodipodi:docname="Heart.svg"
   xmlns:inkscape="http://www.inkscape.org/namespaces/inkscape"
   xmlns:sodipodi="http://sodipodi.sourceforge.net/DTD/sodipodi-0.dtd"
   xmlns="http://www.w3.org/2000/svg"
   xmlns:svg="http://www.w3.org/2000/svg">
  <sodipodi:namedview
     id="namedview7"
     pagecolor="#ffffff"
     bordercolor="#666666"
     borderopacity="1.0"
     inkscape:pageshadow="2"
     inkscape:pageopacity="0.0"
     inkscape:pagecheckerboard="0"
     inkscape:document-units="mm"
     showgrid="false"
     inkscape:zoom="2.5749196"
     inkscape:cx="103.3042"
     inkscape:cy="226.99738"
     inkscape:window-width="2560"
     inkscape:window-height="1361"
     inkscape:window-x="2551"
     inkscape:window-y="-9"
     inkscape:window-maximized="1"
     inkscape:current-layer="g1240" />
  <defs
     id="defs2">
    <inkscape:path-effect
       effect="fill_between_many"
       method="originald"
       linkedpaths="#path1029,0,1|#path1231,0,1"
       id="path-effect1049" />
  </defs>
  <g
     inkscape:label="Outer cut"
     inkscape:groupmode="layer"
     id="layer1">
    <ellipse
       style="fill:none;stroke:#000000;stroke-width:0.1;stroke-miterlimit:4;stroke-dasharray:none"
       id="path1140"
       cx="50"
       cy="31.07996"
       rx="2.3912063"
       ry="2.3912067" />
  </g>
  <g
     inkscape:groupmode="layer"
     id="layer2"
     inkscape:label="Heart">
    <g
       style="clip-rule:evenodd;fill-rule:evenodd;stroke:none;stroke-width:0;stroke-miterlimit:4;stroke-dasharray:none;stroke-opacity:1"
       id="g1240"
       transform="matrix(2.123382,0,0,2.123382,75.674616,76.078307)">
      <path
         inkscape:original-d="M 0,0"
         inkscape:path-effect="#path-effect1049"
         d="M 0,0"
         id="path1051" />
      <path
         id="path1029"
         style="fill:none;stroke:#00000b;stroke-width:0.377953;stroke-miterlimit:4;stroke-dasharray:none;stroke-opacity:1"
         d="M 188.49805 102.70508 C 181.31531 102.80173 174.2797 107.53303 174.04297 117.4668 C 173.94625 119.42857 174.189 121.19148 174.70117 122.75391 C 159.18018 111.67664 137.4628 109.23366 120.06836 117.68945 C 101.12801 125.93199 90.357972 147.41486 92.962891 167.58984 C 96.359296 192.11573 113.44465 211.5451 129.28125 229.40039 C 148.36922 250.12602 169.0373 269.30695 188.97656 289.19531 C 215.97996 261.81382 245.49897 236.4998 268.41602 205.4043 C 280.3126 189.25734 289.27331 168.55634 283.55469 148.32617 C 278.40457 126.52491 256.73938 112.34024 234.92969 112.71875 C 223.61007 112.58036 212.33624 116.28302 203.20312 122.89648 C 203.74809 121.29867 204.00985 119.48889 203.91016 117.4668 C 203.95629 107.75123 196.14418 102.60219 188.49805 102.70508 z M 194.26562 131.13672 C 192.27513 133.47557 190.49481 136.00217 188.97656 138.70508 C 187.50087 136.00221 185.77397 133.4922 183.83984 131.18164 C 187.18854 132.18427 190.92894 132.17013 194.26562 131.13672 z "
         transform="matrix(0.12460468,0,0,0.12460468,-35.63872,-35.828837)" />
      <text
         xml:space="preserve"
         style="font-style:normal;font-weight:normal;font-size:7.9747px;line-height:0.45;font-family:sans-serif;text-align:center;letter-spacing:0px;text-anchor:middle;fill:#000000;fill-opacity:1;stroke:none;stroke-width:0"
         x="-12.31453"
         y="-10.905892"
         id="text1974"><tspan
           sodipodi:role="line"
           style="font-style:normal;font-variant:normal;font-weight:normal;font-stretch:normal;font-size:7.9747px;font-family:'Kunstler Script';-inkscape-font-specification:'Kunstler Script';text-align:center;text-anchor:middle;stroke-width:0"
           x="-11.65062"
           y="-10.905892"
           id="tspan2468">Enter text here </tspan></text>
    </g>
  </g>
  <g
     inkscape:groupmode="layer"
     id="layer3"
     inkscape:label="Circle"
     style="display:none">
    <circle
       style="fill:none;fill-opacity:1;stroke:#00000b;stroke-width:0.330844;stroke-miterlimit:4;stroke-dasharray:none;stroke-opacity:1"
       id="path5543"
       cx="50"
       cy="50"
       r="24.834578" />
  </g>
</svg>
